<svg width="63" height="63" viewBox="0 0 63 63" fill="none" xmlns="http://www.w3.org/2000/svg">
<path d="M14.7656 55.125H0.984375C0.723302 55.125 0.472923 55.2287 0.288317 55.4133C0.103711 55.5979 0 55.8483 0 56.1094L0 60.0469C0 60.8301 0.311132 61.5812 0.86495 62.135C1.41877 62.6889 2.16991 63 2.95312 63H12.7969C13.5801 63 14.3312 62.6889 14.885 62.135C15.4389 61.5812 15.75 60.8301 15.75 60.0469V56.1094C15.75 55.8483 15.6463 55.5979 15.4617 55.4133C15.2771 55.2287 15.0267 55.125 14.7656 55.125ZM13.7812 60.0469C13.7812 60.3079 13.6775 60.5583 13.4929 60.7429C13.3083 60.9275 13.0579 61.0312 12.7969 61.0312H2.95312C2.69205 61.0312 2.44167 60.9275 2.25707 60.7429C2.07246 60.5583 1.96875 60.3079 1.96875 60.0469V57.0937H13.7812V60.0469Z" fill="white"/>
<path d="M12.7969 39.375H2.95312C2.16991 39.375 1.41877 39.6861 0.86495 40.24C0.311132 40.7938 0 41.5449 0 42.3281L0 52.1719C0 52.4329 0.103711 52.6833 0.288317 52.8679C0.472923 53.0525 0.723302 53.1562 0.984375 53.1562C1.24545 53.1562 1.49583 53.0525 1.68043 52.8679C1.86504 52.6833 1.96875 52.4329 1.96875 52.1719V42.3281C1.96875 42.0671 2.07246 41.8167 2.25707 41.6321C2.44167 41.4475 2.69205 41.3437 2.95312 41.3437H12.7969C13.0579 41.3437 13.3083 41.4475 13.4929 41.6321C13.6775 41.8167 13.7812 42.0671 13.7812 42.3281V52.1719C13.7812 52.4329 13.885 52.6833 14.0696 52.8679C14.2542 53.0525 14.5045 53.1562 14.7656 53.1562C15.0267 53.1562 15.2771 53.0525 15.4617 52.8679C15.6463 52.6833 15.75 52.4329 15.75 52.1719V42.3281C15.75 41.5449 15.4389 40.7938 14.885 40.24C14.3312 39.6861 13.5801 39.375 12.7969 39.375Z" fill="white"/>
<path d="M3.9375 52.1719C3.9375 52.4329 4.04121 52.6833 4.22582 52.8679C4.41042 53.0525 4.6608 53.1562 4.92187 53.1562C5.18295 53.1562 5.43333 53.0525 5.61793 52.8679C5.80254 52.6833 5.90625 52.4329 5.90625 52.1719C5.90625 51.6497 6.11367 51.149 6.48288 50.7798C6.85209 50.4105 7.35285 50.2031 7.875 50.2031C8.39714 50.2031 8.8979 50.4105 9.26711 50.7798C9.63633 51.149 9.84375 51.6497 9.84375 52.1719C9.84375 52.4329 9.94746 52.6833 10.1321 52.8679C10.3167 53.0525 10.567 53.1562 10.8281 53.1562C11.0892 53.1562 11.3396 53.0525 11.5242 52.8679C11.7088 52.6833 11.8125 52.4329 11.8125 52.1719C11.8109 51.5596 11.666 50.9562 11.3892 50.41C11.1125 49.8639 10.7116 49.3901 10.2188 49.0268C10.6117 48.5176 10.8258 47.8931 10.8281 47.25C10.8281 46.4668 10.517 45.7156 9.96317 45.1618C9.40935 44.608 8.65822 44.2969 7.875 44.2969C7.09178 44.2969 6.34064 44.608 5.78682 45.1618C5.23301 45.7156 4.92187 46.4668 4.92187 47.25C4.92524 47.8915 5.13933 48.514 5.5312 49.0219C5.03771 49.3857 4.63645 49.8602 4.35967 50.4073C4.08288 50.9544 3.93828 51.5588 3.9375 52.1719ZM6.89062 47.25C6.89062 47.0553 6.94836 46.865 7.05652 46.7031C7.16469 46.5412 7.31842 46.4151 7.49829 46.3406C7.67817 46.2661 7.87609 46.2466 8.06704 46.2845C8.25799 46.3225 8.43339 46.4163 8.57106 46.5539C8.70872 46.6916 8.80248 46.867 8.84046 47.058C8.87844 47.2489 8.85895 47.4468 8.78444 47.6267C8.70994 47.8066 8.58377 47.9603 8.42189 48.0685C8.26001 48.1766 8.06969 48.2344 7.875 48.2344C7.61393 48.2344 7.36355 48.1307 7.17894 47.9461C6.99433 47.7615 6.89062 47.5111 6.89062 47.25Z" fill="white"/>
<path d="M22.4439 48.1597C21.9184 51.7616 20.363 55.1349 17.965 57.8735C17.8175 58.0725 17.7505 58.3199 17.7773 58.5661C17.8041 58.8124 17.9227 59.0395 18.1096 59.2022C18.2965 59.3648 18.5378 59.451 18.7854 59.4436C19.033 59.4361 19.2688 59.3356 19.4455 59.162C22.0934 56.137 23.8098 52.4108 24.3881 48.4324C24.4099 48.3029 24.4057 48.1704 24.3755 48.0427C24.3454 47.9149 24.29 47.7944 24.2127 47.6884C24.1353 47.5823 24.0375 47.4928 23.925 47.4251C23.8125 47.3575 23.6877 47.3129 23.5577 47.2942C23.4278 47.2755 23.2954 47.283 23.1684 47.3162C23.0414 47.3494 22.9224 47.4077 22.8182 47.4876C22.7141 47.5675 22.627 47.6674 22.562 47.7815C22.497 47.8956 22.4556 48.0215 22.44 48.1518L22.4439 48.1597Z" fill="white"/>
<path d="M49.2187 49.7891C49.2287 49.2194 49.0689 48.6596 48.7597 48.181C48.4504 47.7025 48.0058 47.3267 47.4823 47.1017C47.0889 46.9405 46.7583 46.6563 46.5398 46.2916C46.3214 45.9269 46.2269 45.5013 46.2704 45.0784C46.3139 44.6555 46.4932 44.258 46.7814 43.9455C47.0696 43.6329 47.4512 43.422 47.8692 43.3444C48.1538 43.2906 48.4467 43.3004 48.7271 43.3729C49.0075 43.4454 49.2685 43.5788 49.4914 43.7637C49.7143 43.9487 49.8937 44.1805 50.0167 44.4427C50.1397 44.7049 50.2034 44.991 50.2031 45.2806C50.2031 45.5417 50.3068 45.7921 50.4914 45.9767C50.676 46.1613 50.9264 46.265 51.1875 46.265C51.4486 46.265 51.6989 46.1613 51.8836 45.9767C52.0682 45.7921 52.1719 45.5417 52.1719 45.2806C52.1713 44.5676 51.9771 43.8681 51.61 43.2569C51.2429 42.6456 50.7168 42.1455 50.0877 41.8099C49.4586 41.4743 48.7502 41.3158 48.038 41.3513C47.3259 41.3869 46.6368 41.6152 46.0442 42.0118C45.4517 42.4083 44.978 42.9584 44.6736 43.6032C44.3693 44.248 44.2457 44.9633 44.3161 45.6729C44.3866 46.3824 44.6483 47.0595 45.0735 47.6319C45.4987 48.2043 46.0713 48.6504 46.7302 48.9228C46.8915 49.0013 47.0265 49.125 47.1188 49.2788C47.211 49.4326 47.2566 49.6098 47.25 49.7891V49.8983C46.2932 51.307 43.3125 55.8735 43.3125 58.0775C43.3125 59.3829 43.8311 60.6348 44.7541 61.5578C45.6771 62.4808 46.929 62.9994 48.2344 62.9994C49.5397 62.9994 50.7916 62.4808 51.7147 61.5578C52.6377 60.6348 53.1562 59.3829 53.1562 58.0775C53.1562 55.8735 50.1756 51.307 49.2187 49.8983V49.7891ZM48.2344 61.0306C47.4512 61.0306 46.7 60.7195 46.1462 60.1657C45.5924 59.6119 45.2812 58.8607 45.2812 58.0775C45.2812 57.0026 46.8179 54.1971 48.2344 51.9832C49.6509 54.1971 51.1875 57.0036 51.1875 58.0775C51.1875 58.8607 50.8764 59.6119 50.3225 60.1657C49.7687 60.7195 49.0176 61.0306 48.2344 61.0306Z" fill="white"/>
<path d="M41.4248 61.0312H18.3579C18.0968 61.0312 17.8465 61.135 17.6619 61.3196C17.4772 61.5042 17.3735 61.7546 17.3735 62.0156C17.3735 62.2767 17.4772 62.5271 17.6619 62.7117C17.8465 62.8963 18.0968 63 18.3579 63H41.4248C41.6858 63 41.9362 62.8963 42.1208 62.7117C42.3054 62.5271 42.4091 62.2767 42.4091 62.0156C42.4091 61.7546 42.3054 61.5042 42.1208 61.3196C41.9362 61.135 41.6858 61.0312 41.4248 61.0312Z" fill="white"/>
<path d="M39.4283 47.1576C39.3001 47.1749 39.1766 47.2173 39.0648 47.2824C38.953 47.3475 38.8551 47.434 38.7768 47.5369C38.6984 47.6399 38.6411 47.7572 38.6082 47.8823C38.5752 48.0074 38.5672 48.1378 38.5847 48.266C38.883 50.4683 39.5314 52.6087 40.5052 54.6063C40.6194 54.8413 40.8223 55.0213 41.0692 55.1067C41.3161 55.192 41.5868 55.1758 41.8218 55.0616C42.0568 54.9474 42.2367 54.7445 42.3221 54.4976C42.4075 54.2507 42.3913 53.98 42.2771 53.745C41.3953 51.9352 40.8081 49.9962 40.5377 48.0012C40.5204 47.8729 40.4779 47.7493 40.4128 47.6374C40.3476 47.5255 40.261 47.4276 40.158 47.3493C40.0549 47.2709 39.9375 47.2136 39.8122 47.1807C39.687 47.1478 39.5566 47.14 39.4283 47.1576Z" fill="white"/>
<path d="M59.0625 49.8983V49.7891C59.0725 49.2194 58.9127 48.6596 58.6034 48.181C58.2942 47.7025 57.8495 47.3267 57.3261 47.1017C56.9327 46.9405 56.602 46.6563 56.3836 46.2916C56.1651 45.9269 56.0706 45.5013 56.1142 45.0784C56.1577 44.6555 56.337 44.258 56.6251 43.9455C56.9133 43.6329 57.2949 43.422 57.7129 43.3444C57.9975 43.2906 58.2905 43.3004 58.5709 43.3729C58.8513 43.4454 59.1122 43.5788 59.3352 43.7637C59.5581 43.9487 59.7374 44.1805 59.8604 44.4427C59.9835 44.7049 60.0471 44.991 60.0469 45.2806C60.0469 45.5417 60.1506 45.7921 60.3352 45.9767C60.5198 46.1613 60.7702 46.265 61.0312 46.265C61.2923 46.265 61.5427 46.1613 61.7273 45.9767C61.9119 45.7921 62.0156 45.5417 62.0156 45.2806C62.015 44.5676 61.8208 43.8681 61.4538 43.2569C61.0867 42.6456 60.5605 42.1455 59.9314 41.8099C59.3023 41.4743 58.5939 41.3158 57.8818 41.3513C57.1696 41.3869 56.4805 41.6152 55.888 42.0118C55.2954 42.4083 54.8217 42.9584 54.5174 43.6032C54.213 44.248 54.0895 44.9633 54.1599 45.6729C54.2303 46.3824 54.4921 47.0595 54.9173 47.6319C55.3424 48.2043 55.9151 48.6504 56.574 48.9228C56.7353 49.0013 56.8702 49.125 56.9625 49.2788C57.0548 49.4326 57.1004 49.6098 57.0937 49.7891V49.9003C56.1347 51.3203 55.2515 52.7901 54.4478 54.3034C54.3277 54.5354 54.3046 54.8055 54.3837 55.0545C54.4628 55.3034 54.6376 55.5107 54.8696 55.6308C55.1015 55.7509 55.3717 55.774 55.6206 55.6949C55.8696 55.6158 56.0769 55.441 56.197 55.209C56.8004 54.0426 57.5328 52.8465 58.0811 51.9862C59.4966 54.201 61.0342 57.0065 61.0342 58.0775C61.0342 58.8607 60.7231 59.6119 60.1693 60.1657C59.6154 60.7195 58.8643 61.0306 58.0811 61.0306C57.3766 61.0281 56.697 60.7699 56.1684 60.3042C56.0705 60.2197 55.9569 60.1554 55.8342 60.1149C55.7114 60.0744 55.5818 60.0585 55.4529 60.068C55.324 60.0776 55.1982 60.1124 55.0827 60.1706C54.9673 60.2288 54.8644 60.3091 54.78 60.407C54.6956 60.505 54.6313 60.6185 54.5907 60.7413C54.5502 60.8641 54.5343 60.9936 54.5439 61.1226C54.5534 61.2515 54.5883 61.3773 54.6464 61.4927C54.7046 61.6082 54.7849 61.7111 54.8828 61.7955C55.5938 62.4131 56.4676 62.8129 57.3998 62.947C58.332 63.0811 59.2831 62.9439 60.1393 62.5517C60.9955 62.1595 61.7206 61.529 62.228 60.7355C62.7353 59.9421 63.0033 59.0193 63 58.0775C63 55.8735 60.0193 51.307 59.0625 49.8983Z" fill="white"/>
<path d="M31.4999 47.25C46.364 47.25 54.3787 22.7489 55.8327 17.8379C56.0168 17.2174 56.11 16.5734 56.1093 15.9262C56.1068 14.2794 55.5042 12.6899 54.4143 11.4553C53.3245 10.2207 51.8221 9.42551 50.1883 9.21867L47.2351 8.8515L43.5703 8.39475C43.5437 8.38884 43.4807 8.37703 43.4532 8.37309C43.2035 8.33689 42.9496 8.3997 42.7457 8.54813C42.5417 8.69654 42.4038 8.91881 42.3615 9.16748C42.3182 9.41964 42.373 9.67879 42.5147 9.89183C42.6564 10.1049 42.8741 10.2557 43.1234 10.3133C43.1569 10.3202 43.2337 10.335 43.2681 10.3389L45.9722 10.6765C45.3277 14.0429 43.53 17.0793 40.8883 19.2632C38.2467 21.4471 34.9264 22.6419 31.4989 22.6419C28.0714 22.6419 24.7512 21.4471 22.1095 19.2632C19.4679 17.0793 17.6701 14.0429 17.0257 10.6765L19.7297 10.3389C21.1071 10.1607 22.3993 9.57294 23.4388 8.65187C24.4784 7.7308 25.2174 6.51881 25.5602 5.17289L26.3625 1.96875H36.6374L37.4386 5.17191C37.6591 6.03798 38.0474 6.85236 38.5815 7.56886C38.7383 7.77286 38.9687 7.90737 39.2234 7.94358C39.4782 7.97979 39.737 7.91483 39.9444 7.7626C40.1518 7.61038 40.2914 7.38299 40.3333 7.12912C40.3751 6.87526 40.3159 6.6151 40.1683 6.40434C39.7866 5.89338 39.5081 5.31294 39.3483 4.69547L38.364 0.746159C38.3107 0.532618 38.1874 0.343083 38.0138 0.207829C37.8402 0.0725753 37.6262 -0.000595597 37.4062 3.65164e-06H25.5937C25.3741 6.43117e-05 25.1608 0.0735378 24.9878 0.20874C24.8148 0.343942 24.692 0.533109 24.6388 0.746159L23.6544 4.69547C23.4094 5.65659 22.8816 6.52204 22.1392 7.17981C21.3969 7.83758 20.4742 8.25739 19.4905 8.3849L12.8155 9.21867C11.8555 9.34967 10.9343 9.68279 10.1125 10.196C9.29075 10.7093 8.58719 11.391 8.04828 12.1961C7.50937 13.0013 7.14736 13.9116 6.98614 14.867C6.82492 15.8223 6.86817 16.801 7.11302 17.7384C8.40944 22.6652 15.679 47.25 31.4999 47.25ZM41.3437 22.1238C42.3113 23.2499 43.3124 24.7344 43.3124 25.5937C43.3124 26.1159 43.105 26.6166 42.7358 26.9859C42.3666 27.3551 41.8658 27.5625 41.3437 27.5625C40.8215 27.5625 40.3207 27.3551 39.9515 26.9859C39.5823 26.6166 39.3749 26.1159 39.3749 25.5937C39.3749 24.7344 40.376 23.2499 41.3437 22.1238ZM34.453 30.5156C34.453 31.2988 34.1419 32.05 33.5881 32.6038C33.0343 33.1576 32.2831 33.4687 31.4999 33.4687C30.7167 33.4687 29.9656 33.1576 29.4117 32.6038C28.8579 32.05 28.5468 31.2988 28.5468 30.5156C28.5468 28.8156 30.3029 26.4403 31.4999 25.072C32.6969 26.4403 34.453 28.8156 34.453 30.5156ZM23.6249 25.5937C23.6249 26.1159 23.4175 26.6166 23.0483 26.9859C22.6791 27.3551 22.1783 27.5625 21.6562 27.5625C21.134 27.5625 20.6333 27.3551 20.264 26.9859C19.8948 26.6166 19.6874 26.1159 19.6874 25.5937C19.6874 24.7344 20.6885 23.2499 21.6562 22.1238C22.6238 23.2499 23.6249 24.7344 23.6249 25.5937ZM13.0557 11.1727L15.0737 10.9197C15.7517 14.6234 17.6629 17.9887 20.4966 20.4681C19.5831 21.4682 17.7187 23.7431 17.7187 25.5937C17.7187 26.638 18.1335 27.6395 18.8719 28.378C19.6104 29.1164 20.6119 29.5312 21.6562 29.5312C22.7005 29.5312 23.702 29.1164 24.4404 28.378C25.1788 27.6395 25.5937 26.638 25.5937 25.5937C25.5403 24.7465 25.2793 23.9253 24.8337 23.2027C26.2979 23.8429 27.8469 24.2683 29.4327 24.4656C28.1904 25.9934 26.578 28.3835 26.578 30.5156C26.578 31.821 27.0966 33.0729 28.0196 33.9959C28.9426 34.9189 30.1945 35.4375 31.4999 35.4375C32.8053 35.4375 34.0572 34.9189 34.9802 33.9959C35.9032 33.0729 36.4218 31.821 36.4218 30.5156C36.4218 28.3835 34.8094 25.9934 33.5671 24.4656C35.1532 24.2684 36.7026 23.843 38.1671 23.2027C37.7212 23.9252 37.4598 24.7464 37.4062 25.5937C37.4062 26.638 37.821 27.6395 38.5594 28.378C39.2978 29.1164 40.2994 29.5312 41.3437 29.5312C42.3879 29.5312 43.3895 29.1164 44.1279 28.378C44.8663 27.6395 45.2812 26.638 45.2812 25.5937C45.2812 23.7431 43.4167 21.4682 42.5032 20.4651C45.3369 17.9857 47.2482 14.6204 47.9262 10.9167L49.9441 11.1697C51.1027 11.3159 52.1682 11.8797 52.9407 12.7553C53.7133 13.631 54.1399 14.7584 54.1405 15.9262C54.1406 16.3842 54.0743 16.8398 53.9436 17.2787C52.5655 21.9516 44.9681 45.2812 31.4999 45.2812C17.128 45.2812 10.2492 21.9201 9.0168 17.2364C8.90676 16.8085 8.8538 16.368 8.8593 15.9262C8.86065 14.759 9.28757 13.6322 10.0601 12.7572C10.8326 11.8821 11.8976 11.3188 13.0557 11.1727Z" fill="white"/>
</svg>
