<svg width="49" height="49" viewBox="0 0 49 49" fill="none" xmlns="http://www.w3.org/2000/svg">
<path d="M26.9777 15.5961L27.1661 25.3671L25.5484 16.7094L23.2975 15.5032L26.9777 15.5961ZM21.5761 28.1725L21.6771 32.875L25.3575 32.96L22.632 31.9725L21.5761 28.1725ZM34.5031 12.8064V35.7754L29.8521 40.6344H18.5734L13.9224 35.7754V12.8064L18.5734 7.94727H29.8521L34.5031 12.8064ZM32.8975 12.8796L29.7101 9.55041L28.3704 13.2003L29.1832 14.0131L32.8975 12.8796ZM28.6013 33.7093V14.715L27.6566 13.7705H20.7689L19.8242 14.715V33.7093L20.7689 34.6539H27.6566L28.6013 33.7093ZM28.888 9.1579H19.5375L20.8974 12.8625H27.5281L28.888 9.1579ZM18.7154 9.55041L15.528 12.8796L19.2423 14.0131L20.0551 13.2003L18.7154 9.55041ZM15.133 13.7089V34.8485L18.9162 33.5712V14.8635L15.133 13.7089ZM15.5078 35.6808L18.7078 39.0231L20.057 35.226L19.2488 34.4178L15.5078 35.6808ZM19.5293 39.4237H28.8963L27.524 35.5619H20.9015L19.5293 39.4237ZM29.7179 39.0231L32.9177 35.6808L29.1767 34.4178L28.3686 35.226L29.7179 39.0231ZM33.2925 34.8485V13.7089L29.5093 14.8635V33.5712L33.2925 34.8485Z" fill="black"/>
</svg>
