<svg width="126" height="60" viewBox="0 0 126 60" fill="none" xmlns="http://www.w3.org/2000/svg">
<path d="M59.2 1.38783C58.8 2.18783 56.9333 2.4545 55.2 2.0545C53.0667 1.52117 51.2 2.0545 49.7333 3.52117C48.4 4.8545 45.6 6.72117 43.6 7.52117C41.6 8.4545 40 10.0545 40 11.2545C40 12.3212 38.8 14.4545 37.3333 15.9212C35.8667 17.3878 34.6667 19.7878 34.6667 21.2545C34.6667 23.7878 33.7333 23.9212 18.9333 23.9212C2.26667 23.9212 0 24.7212 0 30.1878C0 34.8545 3.86667 35.9212 19.8667 35.9212C33.7333 35.9212 34.6667 36.0545 34.6667 38.5878C34.6667 40.0545 35.8667 41.9212 37.3333 42.8545C38.8 43.7878 40 45.5212 40 46.5878C40 49.3878 42.6667 51.9212 45.6 51.9212C46.9333 51.9212 48 52.8545 48 53.9212C48 55.7878 52.8 57.7878 55.4667 56.9878C56.1333 56.8545 58 57.3878 59.6 58.3212C62.5333 59.9212 66.6667 59.2545 66.6667 57.1212C66.6667 56.4545 68.4 56.3212 70.5333 56.7212C73.6 57.3878 74.8 56.9878 76.2667 54.7212C77.2 53.1212 78.9333 51.9212 80 51.9212C82.5333 51.9212 85.3333 49.3878 85.3333 46.9878C85.3333 46.0545 86.5333 44.0545 88.1333 42.4545C89.6 40.9878 90.5333 38.8545 90.1333 37.7878C89.6 36.1878 92.1333 35.9212 105.2 35.9212C119.2 35.9212 121.2 35.6545 123.333 33.2545C125.333 30.9878 125.467 30.0545 124.267 27.2545C122.8 23.9212 122.533 23.9212 106 23.9212C94.6667 23.9212 89.4667 23.5212 90 22.5878C90.5333 21.7878 89.8667 19.5212 88.4 17.5212C87.0667 15.5212 85.4667 12.7212 84.6667 11.2545C83.8667 9.78783 81.8667 7.92117 80.1333 7.12117C78.4 6.18784 76.5333 4.72117 76 3.78783C75.3333 2.98783 73.0667 2.18783 70.8 2.32117C68.5333 2.32117 66.4 1.78783 66 1.12117C64.9333 -0.478832 60.4 -0.345501 59.2 1.38783ZM65.0667 5.6545C65.6 8.4545 61.4667 10.3212 60 7.92117C58.4 5.38783 60 2.32117 62.5333 2.8545C63.7333 3.12117 64.8 4.32117 65.0667 5.6545ZM55.6 5.38783C57.7333 7.52117 56.2667 10.5878 53.3333 10.5878C50 10.5878 48.6667 8.18784 50.6667 5.92117C52.6667 3.52117 53.6 3.38783 55.6 5.38783ZM74.4 6.98783C74.9333 9.78783 71.0667 11.5212 69.0667 9.52117C68 8.4545 68 7.38783 69.3333 5.92117C71.4667 3.38783 73.8667 3.92117 74.4 6.98783ZM48.5333 11.3878C49.6 14.1878 48.4 15.9212 45.2 15.9212C43.6 15.9212 42.6667 14.9878 42.6667 13.5212C42.6667 8.98783 47.0667 7.52117 48.5333 11.3878ZM82.4 12.3212C82.9333 14.9878 79.0667 16.8545 77.0667 14.8545C75.0667 12.8545 76.9333 8.98783 79.6 9.52117C80.9333 9.78783 82.1333 10.9878 82.4 12.3212ZM61.3333 14.3212C61.3333 16.8545 55.0667 21.2545 51.6 21.2545C45.8667 21.2545 48.2667 15.6545 55.2 12.7212C59.8667 10.7212 61.3333 11.1212 61.3333 14.3212ZM68.9333 12.1878C73.7333 14.4545 77.6 18.3212 76.6667 19.9212C74.4 23.6545 64 18.7212 64 13.9212C64 10.0545 64 10.0545 68.9333 12.1878ZM43.2 18.4545C44.4 20.3212 42.6667 23.9212 40.6667 23.9212C38.2667 23.9212 36.9333 21.6545 37.8667 19.2545C38.6667 16.9878 42.1333 16.5878 43.2 18.4545ZM87.7333 20.3212C88.2667 22.9878 84.4 24.8545 82.4 22.8545C80.4 20.8545 82.2667 16.9878 84.9333 17.5212C86.2667 17.7878 87.4667 18.9878 87.7333 20.3212ZM72 29.7878C72 34.9878 71.6 35.7878 67.3333 37.9212C63.0667 40.3212 62.5333 40.3212 58 38.1878C53.7333 36.1878 53.3333 35.5212 53.3333 30.0545C53.3333 24.8545 53.8667 23.9212 57.7333 21.5212C61.8667 18.9878 62.1333 18.9878 67.0667 21.5212C71.6 23.7878 72 24.4545 72 29.7878ZM49.0667 22.8545C51.3333 25.1212 51.0667 33.9212 48.5333 36.0545C45.8667 38.3212 44 35.7878 44 29.6545C44 22.1878 45.8667 19.6545 49.0667 22.8545ZM81.0667 29.9212C81.0667 34.7212 78.5333 38.0545 76 36.5878C74.1333 35.3878 74.2667 24.8545 76.2667 22.8545C78.6667 20.4545 81.0667 24.0545 81.0667 29.9212ZM33.0667 29.5212C33.4667 31.6545 32.1333 31.9212 18.1333 31.9212C6.13333 31.9212 2.66667 31.5212 2.66667 30.1878C2.66667 26.8545 4.4 26.4545 18.5333 26.8545C30.6667 27.2545 32.6667 27.5212 33.0667 29.5212ZM41.3333 29.1212C41.3333 32.5878 39.0667 33.9212 36.6667 31.9212C34.2667 29.9212 35.6 26.5878 38.8 26.5878C40.4 26.5878 41.3333 27.5212 41.3333 29.1212ZM88.9333 28.7212C89.3333 29.7878 89.0667 31.3878 88.1333 32.3212C86.2667 34.1878 81.8667 30.3212 83.2 28.0545C84.5333 25.9212 88 26.3212 88.9333 28.7212ZM121.2 28.3212C122 29.3878 122.267 30.5878 121.733 30.9878C121.333 31.5212 114.4 31.9212 106.4 31.9212C92.9333 31.9212 92 31.7878 92 29.2545C92 26.7212 92.9333 26.5878 105.867 26.5878C115.733 26.5878 120.133 27.1212 121.2 28.3212ZM43.4667 37.3878C44.5333 39.2545 40.6667 43.1212 38.8 42.0545C36.2667 40.4545 37.0667 35.9212 39.8667 35.9212C41.3333 35.9212 42.9333 36.5878 43.4667 37.3878ZM87.4667 37.3878C88.5333 39.2545 84.6667 43.1212 82.8 42.0545C80.2667 40.4545 81.0667 35.9212 83.8667 35.9212C85.3333 35.9212 86.9333 36.5878 87.4667 37.3878ZM56.5333 40.0545C60.9333 42.5878 63.3333 47.9212 60 47.9212C56.6667 47.9212 46.6667 41.5212 46.6667 39.3878C46.6667 38.9878 47.7333 38.4545 49.0667 38.1878C50.2667 37.7878 51.4667 37.5212 51.6 37.3878C51.7333 37.3878 54 38.4545 56.5333 40.0545ZM75.8667 38.9878C76.9333 40.4545 76.8 41.3878 74.9333 42.8545C72.1333 45.3878 67.3333 47.9212 65.4667 47.9212C62.2667 47.9212 64.2667 42.7212 68.4 40.0545C73.4667 36.7212 73.8667 36.7212 75.8667 38.9878ZM48 44.5878C50 46.9878 48.6667 49.2545 45.2 49.2545C43.6 49.2545 42.6667 48.3212 42.6667 46.8545C42.6667 42.4545 45.3333 41.2545 48 44.5878ZM82.6667 46.0545C82.6667 48.5878 78.9333 50.0545 77.0667 48.1878C76 47.1212 76 46.1878 77.2 44.7212C79.0667 42.4545 82.6667 43.3878 82.6667 46.0545ZM55.7333 51.6545C56.1333 53.7878 55.4667 54.5878 53.6 54.5878C50.4 54.5878 48.9333 51.5212 51.0667 49.3878C53.2 47.2545 55.2 48.3212 55.7333 51.6545ZM74.4 50.9878C74.9333 53.7878 71.0667 55.5212 69.0667 53.5212C68 52.4545 68 51.3878 69.3333 49.9212C71.4667 47.3878 73.8667 47.9212 74.4 50.9878ZM65.3333 53.1212C65.3333 56.7212 62.8 57.9212 60.4 55.5212C58 53.1212 59.2 50.5878 62.8 50.5878C64.4 50.5878 65.3333 51.5212 65.3333 53.1212Z" fill="black"/>
<path d="M66.9331 26.5878C68.7998 29.5212 70.1331 29.1212 68.9331 25.9212C68.3998 24.8545 67.4664 23.9212 66.6664 23.9212C65.8664 23.9212 65.8664 24.8545 66.9331 26.5878Z" fill="black"/>
</svg>
