<svg width="126" height="55" viewBox="0 0 126 55" fill="none" xmlns="http://www.w3.org/2000/svg">
<path d="M57.4667 0.413467C48.8 1.88013 42.1333 6.9468 38.5333 14.6801C36 19.7468 34.8 21.2135 32.9333 20.6801C31.6 20.2801 29.7333 20.5468 28.8 21.3468C27.4667 22.5468 26 22.4135 23.4667 21.3468C20.8 20.1468 19.6 20.0135 18.4 21.2135C17.3333 22.2801 16.1333 22.2801 14.4 21.3468C12.9333 20.5468 11.0667 20.5468 9.73333 21.2135C8.4 21.8801 6.53333 22.1468 5.6 21.8801C3.06667 20.9468 0 24.0135 0 27.6135C0 30.8135 4.4 34.2801 6.66667 32.8135C7.33333 32.4135 9.06667 32.6801 10.4 33.3468C12.1333 34.2801 13.4667 34.1468 14.5333 33.0801C15.6 32.0135 16.6667 31.8801 18.4 33.0801C20 34.0135 21.6 34.1468 23.0667 33.2135C24.4 32.5468 26.6667 32.4135 28.4 32.9468C30 33.4801 32.2667 33.8801 33.4667 33.6135C34.8 33.4801 36 34.6801 36.5333 36.6801C37.7333 41.7468 45.2 49.6135 51.3333 52.2801C65.3333 58.6801 83.3333 51.3468 88.2667 37.0801C89.2 34.8135 90.5333 33.4801 91.8667 33.6135C93.0667 33.8801 95.3333 33.4801 96.9333 32.9468C98.6667 32.4135 100.933 32.5468 102.267 33.2135C103.733 34.1468 105.333 34.0135 106.933 33.0801C108.667 31.8801 109.733 32.0135 110.8 33.0801C111.867 34.1468 113.2 34.2801 114.933 33.3468C116.267 32.6801 118 32.4135 118.667 32.8135C119.333 33.2135 121.2 32.9468 122.667 32.1468C127.733 29.3468 124.933 20.8135 119.067 21.6135C117.733 21.7468 115.6 21.4801 114.267 20.8135C112.8 20.2801 111.2 20.4135 110.4 21.2135C109.333 22.2801 108.133 22.2801 106.4 21.3468C104.8 20.5468 103.067 20.5468 101.2 21.4801C99.2 22.5468 98 22.5468 96.6667 21.4801C95.6 20.6801 93.6 20.2801 92.2667 20.6801C90.2667 21.3468 89.4667 20.8135 88.8 18.1468C87.8667 14.5468 79.7333 4.81347 76 2.81347C71.4667 0.413467 63.2 -0.653198 57.4667 0.413467ZM61.0667 4.9468C60.5333 8.01347 46.1333 16.1468 43.8667 14.6801C42.4 13.8801 42.8 12.9468 45.3333 10.0135C50.9333 4.01347 62 0.413467 61.0667 4.9468ZM72.4 4.68013C74.8 5.61347 78.1333 8.01347 80 10.0135C86.9333 17.6135 76.4 15.8801 65.7333 7.7468C63.3333 6.01347 63.6 2.81347 66 2.81347C67.2 2.81347 70 3.61347 72.4 4.68013ZM71.2 13.7468L78.6667 18.1468V27.0801C78.6667 36.8135 78 37.7468 66.9333 43.3468C62.6667 45.6135 62.4 45.4801 54.6667 41.2135L46.6667 36.8135V27.4801V18.0135L53.7333 13.8801C57.4667 11.6135 61.3333 9.61347 62.2667 9.61347C63.0667 9.48013 67.0667 11.4801 71.2 13.7468ZM43.7333 27.3468C44.1333 36.6801 43.8667 37.6135 41.7333 37.2135C38.4 36.5468 36.8 28.4135 38.6667 21.6135C40.9333 12.8135 43.3333 15.4801 43.7333 27.3468ZM86.1333 19.7468C86.5333 21.8801 87.0667 24.1468 87.3333 24.9468C88.1333 27.8801 85.0667 38.9468 83.6 38.4135C82 37.8801 80.6667 21.3468 81.8667 17.8801C83.0667 14.9468 85.2 15.8801 86.1333 19.7468ZM14.4 26.0135C15.3333 30.2801 13.6 32.4135 10.6667 30.8135C7.6 29.2135 7.2 26.8135 9.6 24.4135C11.7333 22.2801 13.8667 23.0801 14.4 26.0135ZM24.5333 25.8801C25.7333 27.7468 25.4667 28.6801 23.6 30.1468C20.2667 32.5468 17.3333 31.3468 17.3333 27.6135C17.3333 22.2801 21.6 21.2135 24.5333 25.8801ZM34.4 26.9468C34.9333 31.2135 31.6 32.9468 28.6667 30.0135C27.2 28.4135 27.0667 27.3468 28.1333 25.3468C30 21.6135 33.8667 22.6801 34.4 26.9468ZM97.0667 26.6801C97.6 30.1468 95.3333 32.2801 92.4 31.2135C90.5333 30.5468 90 25.2135 91.6 23.6135C93.4667 21.7468 96.6667 23.6135 97.0667 26.6801ZM107.733 25.8801C108.533 29.6135 105.6 32.4135 102.533 30.6801C99.6 29.2135 99.3333 26.6801 101.6 24.4135C103.867 22.1468 107.2 22.9468 107.733 25.8801ZM116.533 26.0135C117.733 27.7468 117.467 28.6801 115.467 30.1468C112.4 32.5468 110.667 31.6135 110.667 27.6135C110.667 22.2801 113.733 21.4801 116.533 26.0135ZM6.4 27.0801C6.13333 28.8135 5.46667 30.1468 4.66667 30.1468C4 30.1468 3.2 28.8135 2.93333 27.0801C2.66667 25.0801 3.2 24.1468 4.66667 24.1468C6.13333 24.1468 6.66667 25.0801 6.4 27.0801ZM122.4 27.0801C122.133 28.8135 121.467 30.1468 120.667 30.1468C120 30.1468 119.2 28.8135 118.933 27.0801C118.667 25.0801 119.2 24.1468 120.667 24.1468C122.133 24.1468 122.667 25.0801 122.4 27.0801ZM52.9333 42.9468C63.2 48.8135 64.8 53.8801 55.3333 50.8135C49.7333 48.9468 42.6667 43.3468 42.6667 40.6801C42.6667 37.8801 44.9333 38.4135 52.9333 42.9468ZM82 40.2801C83.8667 43.0801 75.7333 49.3468 67.7333 51.3468C64.6667 52.0135 64 51.7468 64 49.8801C64 48.4135 66.9333 45.8801 71.7333 43.2135C80.2667 38.4135 80.8 38.2801 82 40.2801Z" fill="black"/>
<path d="M66.6665 17.4801C66.6665 18.1468 67.7332 19.2135 68.9332 20.0135C70.2665 20.6801 71.9998 23.2135 72.7998 25.7468L74.3998 30.1468L74.5332 25.3468C74.6665 21.6135 73.8665 20.0135 71.3332 18.2801C67.5998 15.8801 66.6665 15.6135 66.6665 17.4801Z" fill="black"/>
</svg>
