<svg width="56" height="56" viewBox="0 0 56 56" fill="none" xmlns="http://www.w3.org/2000/svg">
<path d="M32.7415 23.0485L34.5958 27.5672L31.83 24.0633L27.9017 21.0329L32.7415 23.0485ZM20.9119 26.6453L22.7895 32.6513L28.3544 34.8261L23.9366 31.0608L20.9119 26.6453ZM43.6237 27.7346C43.6237 36.4963 36.4965 43.6243 27.7346 43.6243C18.9727 43.6243 11.8455 36.4963 11.8455 27.7346C11.8455 18.9727 18.9727 11.8447 27.7346 11.8447C36.4965 11.8447 43.6237 18.9727 43.6237 27.7346ZM37.2201 31.1001L41.4157 32.838C42.0119 31.2463 42.3534 29.5316 42.3534 27.7346C42.3534 25.9375 42.0119 24.2227 41.4157 22.631L37.2259 24.3665L37.2201 31.1001ZM33.8007 14.451L32.0641 18.6423L36.8212 23.4076L41.0189 21.669C39.5572 18.4818 36.9881 15.9124 33.8007 14.451ZM36.1795 31.242L36.1863 24.2426L31.242 19.2902L24.2434 19.2829L19.2896 24.2278L19.2829 31.2265L24.2271 36.1794L31.2258 36.1862L36.1795 31.242ZM27.7346 13.1164C25.9374 13.1164 24.2224 13.458 22.6305 14.0541L24.3664 18.2432L31.1003 18.2498L32.8387 14.0539C31.2467 13.458 29.5318 13.1164 27.7346 13.1164ZM14.4503 21.669L18.6413 23.4049L23.4072 18.6475L21.6685 14.451C18.4812 15.9124 15.9119 18.4819 14.4503 21.669ZM13.1157 27.7346C13.1157 29.5316 13.4573 31.2464 14.0534 32.838L18.2433 31.1026L18.2491 24.3688L14.0534 22.6311C13.4573 24.2227 13.1157 25.9375 13.1157 27.7346ZM21.6686 41.0181L23.4051 36.8273L18.6478 32.0614L14.4503 33.8C15.9119 36.9872 18.4812 39.5565 21.6686 41.0181ZM27.7346 42.3527C29.5316 42.3527 31.2467 42.011 32.8387 41.415L31.1027 37.2257L24.3689 37.22L22.6305 41.415C24.2224 42.011 25.9374 42.3527 27.7346 42.3527ZM41.0189 33.8L36.8283 32.0645L32.0617 36.8218L33.8005 41.0181C36.9881 39.5565 39.5572 36.9872 41.0189 33.8Z" fill="black"/>
</svg>
