<svg width="126" height="55" viewBox="0 0 126 55" fill="none" xmlns="http://www.w3.org/2000/svg">
<path d="M57.7333 0.345524C49.7333 1.54552 42 7.41219 38.4 15.1455L35.3333 21.5455L19.2 21.6789C2.93333 21.6789 0 22.4789 0 27.0122C0 32.3455 4.13333 33.6789 20.2667 33.6789H35.7333L37.0667 37.4122C42 51.5455 60 58.8789 74 52.4789C80.1333 49.8122 87.6 41.9455 88.8 37.0122C89.6 33.6789 89.7333 33.6789 105.333 33.6789C121.867 33.6789 125.333 32.6122 125.333 27.1455C125.333 22.4789 122.533 21.6789 106.533 21.6789H90.9333L86.9333 14.4789C80.6667 3.41219 70.6667 -1.38781 57.7333 0.345524ZM61.3333 4.87886C61.3333 7.01219 60.1333 8.07886 51.8667 12.7455C47.8667 15.0122 45.2 15.8122 44 15.0122C42.4 14.0789 42.6667 13.1455 45.3333 10.2122C50.8 4.34552 61.3333 0.745525 61.3333 4.87886ZM72.4 4.87886C78.4 7.41219 83.8667 13.4122 81.4667 14.8789C80.2667 15.6789 77.0667 14.4789 72.1333 11.6789C61.2 5.27886 61.4667 0.212193 72.4 4.87886ZM71.2 13.9455L78.6667 18.2122V27.6789V37.0122L70.6667 41.5455L62.5333 45.9455L54.9333 41.4122L47.3333 36.8789L46.9333 27.6789L46.6667 18.3455L53.6 14.0789C57.4667 11.8122 61.3333 9.81219 62.2667 9.81219C63.0667 9.67886 67.0667 11.5455 71.2 13.9455ZM43.7333 27.4122C44 35.6789 43.7333 37.6789 42.1333 37.6789C39.6 37.6789 38.6667 34.7455 38.6667 27.0122C38.6667 12.3455 43.2 12.7455 43.7333 27.4122ZM86.6667 21.6789C88.8 29.5455 86.2667 40.6122 82.8 38.4789C81.2 37.4122 80.6667 18.7455 82.2667 17.2789C84.1333 15.4122 85.3333 16.4789 86.6667 21.6789ZM34.6667 27.0122C34.6667 29.5455 33.7333 29.6789 19.6 29.6789C11.2 29.6789 4 29.2789 3.6 28.7455C3.06667 28.3455 3.33333 27.1455 4.13333 26.0789C5.2 24.8789 9.6 24.3455 20.1333 24.3455C33.7333 24.3455 34.6667 24.4789 34.6667 27.0122ZM121.2 25.5455C125.6 28.3455 120.667 29.6789 105.867 29.6789C91.6 29.6789 90.6667 29.5455 90.6667 27.0122C90.6667 24.4789 91.6 24.3455 105.067 24.3455C112.933 24.3455 120.133 24.8789 121.2 25.5455ZM53.4667 43.2789C58.6667 46.2122 61.3333 48.4789 61.3333 50.2122C61.3333 52.2122 60.6667 52.4789 57.7333 51.8122C52.6667 50.6122 43.4667 44.0789 42.9333 41.2789C42.2667 38.0789 44.5333 38.4789 53.4667 43.2789ZM82 40.4789C83.4667 42.6122 77.6 48.0789 71.0667 50.4789C60.6667 54.4789 61.4667 49.5455 72.2667 43.2789C80.1333 38.6122 80.8 38.3455 82 40.4789Z" fill="black"/>
<path d="M69.2002 19.5455C70.8002 21.2789 72.6669 24.3455 73.3335 26.4789C74.4002 30.3455 74.4002 30.3455 74.5335 25.4122C74.6669 21.8122 73.8669 19.9455 71.7335 18.4789C67.2002 15.2789 65.8669 15.9455 69.2002 19.5455Z" fill="black"/>
</svg>
