<svg width="59" height="59" viewBox="0 0 59 59" fill="none" xmlns="http://www.w3.org/2000/svg">
<path d="M34.4314 24.6683L35.2846 31.3847L33.1218 26.2216L29.0551 22.7739L34.4314 24.6683ZM45.7619 29.0554C45.7619 43.7774 37.3163 45.7621 29.0551 45.7621C20.794 45.7621 12.3484 43.7774 12.3484 29.0554C12.3484 14.3334 20.794 12.3486 29.0551 12.3486C37.3163 12.3486 45.7619 14.3334 45.7619 29.0554ZM42.483 19.8257L38.3689 28.9155L42.5135 38.2198C43.6433 36.0189 44.3091 33.0621 44.3091 29.0554C44.3091 25.0107 43.6327 22.0329 42.483 19.8257ZM39.423 16.25L39.4444 16.2981L30.5448 20.2386L37.2114 22.3496L37.9976 27.0926L41.7995 18.6925C41.117 17.6964 40.3194 16.8897 39.423 16.25ZM36.2466 34.9244L37.2198 29.058L36.2466 23.1867L29.0551 20.9103L21.8637 23.1867L20.8905 29.058L21.8666 34.9266L29.0551 37.2L36.2466 34.9244ZM29.0551 13.8014C25.6642 13.8014 22.3865 14.1488 19.7406 15.5874L28.9757 19.742L38.3654 15.5852C35.7203 14.1486 32.4443 13.8014 29.0551 13.8014ZM16.3108 18.693L20.0961 27.1915L20.8989 22.3496L27.4825 20.2649L18.6617 16.2967L18.6808 16.2541C17.7869 16.8932 16.9917 17.6989 16.3108 18.693ZM13.8011 29.0554C13.8011 33.065 14.4676 36.0233 15.5989 38.2249L19.7413 29.073L15.6245 19.8312C14.4768 22.0378 13.8011 25.0139 13.8011 29.0554ZM18.6868 41.8606L18.6659 41.8129L27.5652 37.872L20.9018 35.7635L20.0977 30.929L16.2967 39.3274L16.2348 39.2994C16.9336 40.3496 17.7561 41.1964 18.6868 41.8606ZM29.0551 44.3094C32.4459 44.3094 35.7234 43.962 38.3694 42.5235L29.1346 38.3683L19.7453 42.5257C22.3905 43.9622 25.6661 44.3094 29.0551 44.3094ZM41.8782 39.2952L41.8121 39.3245L38.0291 30.8315L37.2114 35.7615L30.6277 37.8456L39.4486 41.8144L39.4296 41.8565C40.3591 41.192 41.1802 40.3449 41.8782 39.2952Z" fill="black"/>
</svg>
