<svg width="125" height="55" viewBox="0 0 125 55" fill="none" xmlns="http://www.w3.org/2000/svg">
<path d="M55.6 0.790195C48 2.65686 40.9333 7.9902 38.6667 13.3235C36.8 17.9902 35.2 18.3902 31.2 15.4569C28.6667 13.7235 27.8667 13.8569 22.1333 17.4569C17.4667 20.5235 14.2667 21.4569 9.6 21.4569C2.53333 21.4569 0 23.0569 0 27.7235C0 31.4569 3.6 33.4569 10.6667 33.4569C14.2667 33.4569 18.4 34.6569 22.2667 37.0569C28.1333 40.5235 28.5333 40.5235 32.1333 38.3902C35.8667 36.2569 36 36.3902 37.8667 39.8569C42.2667 48.3902 52.9333 54.7902 62.2667 54.7902C65.0667 54.7902 70.4 53.3235 74.2667 51.5902C80.2667 48.6569 84.1333 44.7902 88.8 36.3902C88.9333 36.2569 90.8 37.0569 93.0667 38.3902C96.9333 40.6569 97.2 40.6569 102.533 37.0569C106.533 34.3902 109.6 33.4569 114.4 33.4569C122.667 33.4569 126.667 29.9902 124.267 24.7902C122.933 21.8569 121.867 21.4569 116 21.4569C110.933 21.4569 107.867 20.5235 103.067 17.5902C96.9333 13.7235 96.6667 13.7235 92.9333 15.8569C89.3333 17.9902 89.0667 17.9902 87.7333 15.7235C85.6 11.8569 78.5333 4.12353 75.8667 2.65686C70.9333 0.123531 61.8667 -0.809803 55.6 0.790195ZM61.0667 4.92353C60.5333 7.9902 46.1333 16.1235 43.8667 14.6569C41.0667 12.9235 43.7333 9.45686 50.6667 5.85686C57.4667 2.25686 61.7333 1.85686 61.0667 4.92353ZM77.2 7.85686C86.4 15.3235 82.8 17.8569 72 11.5902C63.2 6.3902 61.2 1.85686 68.1333 3.32353C70.6667 3.72353 74.6667 5.85686 77.2 7.85686ZM71.3333 14.1235L78.6667 18.7902V27.4569V36.1235L73.2 39.4569C62.9333 45.9902 62.6667 46.1235 54.2667 41.1902L46.6667 36.7902V27.4569V17.9902L53.7333 13.8569C57.4667 11.5902 61.4667 9.5902 62.4 9.5902C63.3333 9.45686 67.3333 11.5902 71.3333 14.1235ZM43.3333 26.9235C43.3333 34.6569 42.9333 36.7902 41.3333 36.7902C38.4 36.7902 36.6667 27.5902 38.5333 21.1902C41.0667 12.9235 43.3333 15.5902 43.3333 26.9235ZM85.8667 18.2569C88.2667 24.5235 85.7333 39.9902 82.5333 38.1235C81.2 37.1902 80.8 18.3902 82.2667 17.0569C83.7333 15.5902 84.9333 15.9902 85.8667 18.2569ZM32.4 19.3235C36 21.9902 35.6 32.6569 31.7333 35.3235C29.0667 37.1902 28.4 37.1902 24.8 35.0569C21.4667 33.0569 20.5333 31.5902 20.2667 27.4569C20 22.7902 20.4 21.8569 23.6 19.8569C28.1333 17.0569 29.3333 17.0569 32.4 19.3235ZM101.467 20.2569C107.067 24.2569 106.933 30.9235 101.067 34.5235C97.3333 36.9235 96.4 37.0569 93.3333 35.4569C90.4 33.9902 90 32.9235 90 27.5902C90.1333 23.1902 90.9333 20.9235 92.8 19.4569C96.1333 16.9235 96.9333 16.9235 101.467 20.2569ZM17.0667 27.0569C17.4667 29.0569 16.4 29.4569 10.1333 29.4569C4.8 29.4569 2.66667 28.9235 2.66667 27.7235C2.66667 24.6569 4.26667 23.9902 10.6667 24.3902C15.0667 24.6569 16.8 25.3235 17.0667 27.0569ZM121.2 25.8569C123.333 28.5235 121.6 29.4569 114.4 29.4569C108.933 29.4569 108 29.0569 108 26.7902C108 24.5235 108.933 24.1235 113.867 24.1235C117.067 24.1235 120.267 24.9235 121.2 25.8569ZM52.8 42.9235C63.2 48.9235 64.9333 53.9902 55.3333 50.7902C47.0667 47.9902 38.4 38.7902 44.1333 38.7902C44.8 38.7902 48.6667 40.6569 52.8 42.9235ZM82 40.2569C83.0667 41.9902 79.2 46.5235 74.6667 48.7902C62.8 54.6569 59.7333 50.1235 71.0667 43.1902C78.6667 38.6569 80.6667 38.1235 82 40.2569Z" fill="black"/>
<path d="M68.2667 19.7235C70.1334 21.8569 72.2667 25.1902 73.0667 27.4569L74.4001 31.4569L74.5334 25.9902C74.6667 21.4569 74.0001 19.9902 71.3334 18.2569C66.2667 14.9235 64.5334 15.7235 68.2667 19.7235Z" fill="black"/>
</svg>
