<svg width="47" height="47" viewBox="0 0 47 47" fill="none" xmlns="http://www.w3.org/2000/svg">
<path d="M19.8629 25.3408L21.7503 18.437L21.4072 25.1953L21.4037 29.4632L19.8629 25.3408ZM34.2953 31.0616C34.1713 31.4144 34.024 31.7632 33.8572 32.1043C33.1635 33.5307 32.2176 34.5773 31.7061 35.089C31.5665 35.2285 31.458 35.3293 31.3959 35.3836C30.485 36.2208 29.5236 36.8371 28.5818 37.2907C26.4732 38.3024 24.4652 38.4962 23.3295 38.4962C22.1976 38.4962 20.1858 38.3024 18.081 37.2868C17.1391 36.8371 16.1778 36.2169 15.2668 35.3836C15.2049 35.3254 15.0964 35.2285 14.9569 35.089C14.4413 34.5734 13.4955 33.5269 12.8055 32.1043C12.6387 31.7632 12.4915 31.4144 12.3675 31.0616C11.7202 29.2978 11.5262 27.3985 11.6929 25.4061C11.8326 23.8169 12.2046 22.1927 12.7629 20.5802C13.3986 18.7429 14.2745 16.9171 15.3404 15.1224C16.4297 13.289 17.705 11.5408 19.0733 9.94765C19.9687 8.90109 20.9068 7.92423 21.8604 7.03661C22.4961 6.44739 23.0582 6.03654 23.3332 5.83496C23.6047 6.04039 24.1706 6.45131 24.8024 7.03661C25.7559 7.92423 26.6941 8.90109 27.5857 9.94765C28.9577 11.5408 30.2292 13.289 31.3455 15.1651C32.3882 16.9171 33.2643 18.7429 33.896 20.5802C34.4583 22.1927 34.8302 23.8169 34.9738 25.4488C35.1364 27.3985 34.9428 29.2978 34.2953 31.0616ZM30.3429 15.7617C29.8692 14.9655 29.3499 14.1895 28.8099 13.4262L27.1155 17.4742L29.4098 24.9593L33.2206 22.3515C33.0947 21.8913 32.9565 21.4291 32.7945 20.9643C32.2085 19.2601 31.3843 17.5113 30.3429 15.7617ZM28.7028 25.6424L26.2603 17.6688L23.3311 14.3284L20.4044 17.6688L17.9618 25.6424L19.7471 30.3865L23.3311 31.8578L26.9175 30.3865L28.7028 25.6424ZM24.0074 7.89048C23.923 7.81223 23.8504 7.75583 23.7686 7.68413V13.507L26.5041 16.6696L28.2024 12.612C27.7178 11.9663 27.2297 11.322 26.7017 10.709C25.8525 9.71203 24.9474 8.76544 24.0074 7.89048ZM18.4538 12.5911L20.1463 16.6357L22.8937 13.5005V7.68406C22.8114 7.7564 22.7393 7.81252 22.6535 7.8922C21.7213 8.75975 20.8145 9.70705 19.9598 10.7061C19.4311 11.3217 18.9337 11.953 18.4538 12.5911ZM13.8654 20.9616C13.7038 21.4286 13.5659 21.8905 13.4406 22.3493L17.2575 24.961L19.5713 17.5264L17.8498 13.4129C17.3127 14.171 16.8059 14.9397 16.3435 15.7183C15.2882 17.4951 14.4544 19.2592 13.8654 20.9616ZM13.4626 30.6597C13.5749 30.9786 13.7046 31.2872 13.8536 31.5919C13.8661 31.6179 13.8814 31.6396 13.8942 31.6653L18.8238 30.4155L17.138 25.9398L13.2111 23.253C13.0391 24.0219 12.9194 24.7756 12.8552 25.5082C12.6971 27.3955 12.9014 29.1304 13.4626 30.6597ZM18.5835 36.234C18.6574 36.2696 18.7293 36.2965 18.8027 36.3299L22.5646 32.4887L19.3723 31.1784L14.3349 32.4554C14.8236 33.2331 15.3656 33.848 15.7818 34.264C15.875 34.3571 15.9522 34.4284 16.0075 34.4794L16.0655 34.5332C16.8184 35.2218 17.6695 35.7976 18.5835 36.234ZM23.3295 37.3297C24.0796 37.3297 25.4405 37.2282 26.9831 36.6852L23.3311 32.956L19.6798 36.6836C21.2203 37.2282 22.5795 37.3297 23.3295 37.3297ZM32.3278 32.455L27.2924 31.1784L24.098 32.4888L27.8612 36.3328C27.9335 36.3 28.0045 36.2738 28.077 36.2388C29.0025 35.7932 29.8539 35.2163 30.6064 34.5247C30.6785 34.4611 30.7669 34.3783 30.8811 34.264C31.2964 33.8487 31.8381 33.2339 32.3278 32.455ZM33.8112 25.5457C33.7453 24.7973 33.6239 24.0316 33.4501 23.2551L29.5267 25.9398L27.8408 30.4155L32.7689 31.6648C32.7813 31.64 32.7959 31.6192 32.8081 31.594C32.9584 31.2864 33.0881 30.9777 33.1948 30.6746C33.7611 29.1312 33.9668 27.4107 33.8112 25.5457Z" fill="black"/>
</svg>
