<svg width="103" height="73" viewBox="0 0 103 73" fill="none" xmlns="http://www.w3.org/2000/svg">
<path d="M30.801 5.73334C27.7343 8.80001 25.201 11.8667 25.201 12.2667C25.201 12.8 28.001 15.8667 31.4677 19.2C34.9343 22.4 37.3343 25.6 36.801 26.1333C36.2677 26.6667 35.0677 26.4 34.2677 25.6C32.1343 23.4667 28.5343 23.6 26.5343 26C24.401 28.5333 25.8677 34.4 28.9343 34.9333C30.401 35.2 28.2677 36.9333 22.801 39.8667C13.0677 45.0667 -0.132331 58.5333 0.00100211 63.0667C0.00100211 65.8667 0.134335 65.8667 1.601 63.3333C6.401 55.6 16.9343 46.2667 26.401 41.6C35.3343 37.2 37.7343 36.6667 48.5343 36.2667C62.6677 35.7333 72.2677 38.4 83.4677 46.1333C89.601 50.4 98.801 60.4 100.268 64.4C101.201 67.2 102.801 64.2667 101.868 61.4667C100.534 56.9333 86.2677 43.6 79.201 40C75.4677 38.1333 72.2677 36.5333 72.001 36.4C71.7343 36.2667 72.9343 34.9333 74.6677 33.4667C77.4677 31.3333 77.601 30.5333 76.1343 27.4667C74.401 23.7333 69.601 22.8 66.801 25.6C65.601 26.8 65.201 26.8 65.201 25.2C65.201 24.1333 68.001 20.9333 71.3343 18.1333L77.4677 13.0667L71.0677 6.53334L64.6677 7.62939e-06H50.5343H36.401L30.801 5.73334ZM68.401 7.86667L73.4677 13.0667L65.0677 19.8667C56.5343 26.8 54.5343 27.7333 54.5343 25.3333C54.5343 23.6 48.2677 23.6 47.201 25.3333C46.2677 26.8 36.9343 20.8 32.001 15.4667L28.6677 12L33.201 7.33334L37.7343 2.66667H50.5343H63.3343L68.401 7.86667ZM34.001 28.1333C35.0677 30 31.201 33.8667 29.3343 32.8C26.801 31.2 27.601 26.6667 30.401 26.6667C31.8677 26.6667 33.4677 27.3333 34.001 28.1333ZM43.4677 28.8C43.8677 29.8667 43.601 31.4667 42.6677 32.4C40.801 34.2667 36.401 30.4 37.7343 28.1333C39.0677 26 42.5343 26.4 43.4677 28.8ZM54.001 28.1333C54.401 28.9333 54.001 30.4 53.0677 31.4667C50.6677 33.7333 47.201 31.7333 48.2677 28.8C49.201 26.4 52.6677 26 54.001 28.1333ZM63.8677 29.2C63.8677 32.8 61.3343 34 58.9343 31.6C56.5343 29.2 57.7343 26.6667 61.3343 26.6667C62.9343 26.6667 63.8677 27.6 63.8677 29.2ZM74.001 28.1333C75.3343 30.4 70.9343 34.2667 69.0677 32.4C68.1343 31.4667 67.8677 29.8667 68.2677 28.8C69.201 26.4 72.6677 26 74.001 28.1333Z" fill="black"/>
<path d="M37.4675 9.73333L34.5342 12.8L39.2008 17.3333C44.5342 22.5333 46.6675 22.1333 42.4008 16.8C40.5342 14.4 39.8675 12.2667 40.4008 10C41.4675 5.86667 41.0675 5.86667 37.4675 9.73333Z" fill="black"/>
<path d="M61.2012 8.26666C61.2012 9.46666 62.1345 10.8 63.3345 11.2C66.6678 12.5333 66.9345 11.3333 63.8678 8.66666C61.6012 6.66666 61.2012 6.53333 61.2012 8.26666Z" fill="black"/>
<path d="M37.2012 42.5333C30.0012 44.8 19.7345 50.9333 15.2012 55.4667C8.80121 61.8667 3.46788 70.1333 4.53454 72C5.06788 72.9333 6.93454 71.2 9.20121 67.7333C14.6679 59.2 22.2679 52.6667 31.2012 48.4C38.1345 45.2 40.6679 44.6667 51.2012 44.8C60.2679 44.8 64.6679 45.4667 69.2012 47.6C78.6679 52 85.8679 57.8667 90.5346 65.2C94.6679 71.4667 97.2012 73.6 97.2012 70.9333C97.2012 68.6667 88.9345 57.3333 84.1346 53.2C75.3345 45.4667 66.0012 42 52.5345 41.7333C46.0012 41.6 39.0679 41.8667 37.2012 42.5333Z" fill="black"/>
</svg>
